<?xml version="1.0" encoding="UTF-8"?>
<svg version="1.1" viewBox="0 0 2048 1588" width="860" height="667" xmlns="http://www.w3.org/2000/svg">
<path transform="translate(0)" d="m0 0h2048v1588h-2048z" fill="#FCFCFC"/>
<path transform="translate(1056,97)" d="m0 0h14l27 2 26 5 17 5 12 5 26 12 7 5 7 4 4 2v2l5 2 11 8 11 9 12 11 19 19 9 11 12 15 16 23 16 27 13 24 15 32 13 33 6 18 4 10 7 24 4 14 10 38 7 33 5 31 4 24 5 43 4 54 1 21 2 21 1 21 2 23 5 80 3 65 1 29v118l-1 45-2 33 5 2 12 4 13 6 27 11 12 5 33 15 24 11 4 3 9 5 16 10v2l5 2 3 2v2l5 2 5 4v2l4 2 4 3v2l4 2 9 8 7 8 12 14 12 18 9 16 7 18 3 12 3 16 6 40 6 36 4 21 4 28 3 20 2 18v23l-3 2h-1318l-5-3-1-1v-9l4-28 5-24 9-36 4-15 5-19 3-14 3-19 7-29 7-21 9-20 12-20 9-12 11-13 11-12 8-7 13-11 17-12 15-9 21-11 25-10 13-5 37-15 48-20h3l-1-5-3-66-1-46v-90l1-49 1-21 2-59 1-11 2-43 5-72 4-43 4-31 3-21 3-15 3-19 5-25 9-39 6-23 7-24 5-16 4-12 3-8 6-17 13-32 9-20 9-19 12-22 15-25 14-20 11-14 11-13 15-16 8-7 12-10 17-12 25-13 21-7 21-4h45l14-4 14-3 19-3z" fill="#414141"/>
<path transform="translate(949,255)" d="m0 0 4 2 21 21 11 9 8 7 16 12 15 10 21 13 32 17 39 18 29 13 25 12 19 11 17 12 13 11 12 12 2 5h2l9 13 12 23 7 19 6 25 2 10 4-4h2l2-4 7-11 5-16 2-10 3-1 6 4 6 8 6 15 3 17v31l-4 22-13 50-8 23-6 10-4 5-7 4-7 1-7-3-4-5-3-6-8 26-8 21-9 20-8 16-12 21-11 16-7 9-8 11-5 6 1 22 5 47 6 36 6 25 6 17 8 16 7 10 29 29 14 11 21 14 20 12 1 1-1 10-8 27-9 25-11 25-13 25-14 22-8 10-7 9-9 10-11 12-11 10-13 10-10 7-14 9-17 9-19 8-23 7-25 5-19 2h-29l-25-3-24-5-20-6-22-9-17-8-14-8v-2l-4-1-11-7v-2l-5-2-5-4-2-1v-2l-4-2-15-14-6-5v-2h-2l-7-8-11-13-11-16-9-15-11-22-8-21-6-22-4-22-1-7v-10l12-7h3v-2l16-10 12-9 9-7 8-7h2l2-4 7-7h2l2-4 10-13 5-11 5-18 4-25 2-24v-74l-1-24v-9l-20-28-7-11-6-11-11-21-12-29-10-31-4 7-6 3h-8l-6-3-7-8-5-8-10-30-12-49-3-19v-25l3-18 5-15 8-11 6-4 5-1 5 5 11 16 2 5h2l2-11 18-72 9-29 10-24 10-19 12-18 13-16 11-12 10-11 8-7 14-13 22-18h2z" fill="#D7D7D7"/>
<path transform="translate(888,807)" d="m0 0 2 2 8 24 11 25 11 21 14 22 14 18 11 12 16 16 17 13 14 9 16 9 19 8 22 7 26 5 19 2h27l30-3 30-6 23-6 4-1 24 24 14 11 21 14 20 12 1 1-1 10-8 27-9 25-11 25-13 25-14 22-8 10-7 9-9 10-11 12-11 10-13 10-10 7-14 9-17 9-19 8-23 7-25 5-19 2h-29l-25-3-24-5-20-6-22-9-17-8-14-8v-2l-4-1-11-7v-2l-5-2-5-4-2-1v-2l-4-2-15-14-6-5v-2h-2l-7-8-11-13-11-16-9-15-11-22-8-21-6-22-4-22-1-7v-10l12-7h3v-2l16-10 12-9 9-7 8-7h2l2-4 7-7h2l2-4 10-13 5-11 5-18 4-25 2-24z" fill="#D7D7D7"/>
<path transform="translate(888,794)" d="m0 0 5 5 11 12 10 11 8 7 14 12 19 13 14 8 21 10 15 5 18 4 10 1h16l14-2 21-6 18-8 18-10 14-10 10-8 20-18 12-13h1l6 60 5 34 6 28 8 24 8 16 7 10 3 4v2l-21 6-28 6-23 3-13 1h-27l-25-3-23-5-27-9-16-8-18-10-19-14-13-12-17-17-13-17-10-14-11-19-11-21-10-25-6-18h-2v-14z" fill="#8D8D8D"/>
<path transform="translate(793,500)" d="m0 0 6 1 6 9 3 9v28l-4 8-7 10-2 7v13l7 20 1 7-3 18-3 6h-3l-5-8-9-25-4-18-1-9v-32l4-20 6-16 4-6z" fill="#8D8D8D"/>
<path transform="translate(1289,503)" d="m0 0 2 3 5 11 5 19 2 17v12l-2 22-4 17-9 24-5 9-2 1-3-3-3-14v-15l6-16 1-5v-14l-4-9-8-12-1-3v-20l2 3 4-4h2l2-4 7-11z" fill="#8D8D8D"/>
<path transform="translate(849,1196)" d="m0 0 5 3v2l4 2 9 9 2 1v2l4 2 9 9 6 4 4 5-4-1-6-4v-2l-4-2-15-14-6-5v-2h-2l-6-7z" fill="#F0F0F0"/>
</svg>
